<?xml version="1.0" standalone="no"?><!DOCTYPE svg PUBLIC "-//W3C//DTD SVG 1.1//EN" "http://www.w3.org/Graphics/SVG/1.1/DTD/svg11.dtd"><svg class="icon" width="200px" height="200.00px" viewBox="0 0 1024 1024" version="1.1" xmlns="http://www.w3.org/2000/svg"><path d="M512 1024C230.4 1024 0 793.6 0 512S230.4 0 512 0s512 230.4 512 512-230.4 512-512 512z" fill="#5BC1ED" /><path d="M1024 512c0-33.344-3.336-65.944-9.496-97.552l-200.096-41.12-480.976-44.368s-21.512-14.024-9.248 53.648c12.152 67.056 32.888 262.04 32.888 262.04l30.832 5.928 248.144 358.056C858.208 952.8 1024 750.856 1024 512z" fill="#2399BC" /><path d="M754.024 619.448l-398.952 21.96-36.6-311.104 486.792 46.36z" fill="#DFDEDE" /><path d="M355.064 648.008a6.604 6.604 0 0 1-6.552-5.832L311.92 331.08a6.616 6.616 0 0 1 1.832-5.384c1.408-1.44 3.424-2.176 5.352-1.96l486.784 46.36a6.588 6.588 0 0 1 5.832 7.936l-51.24 242.776a6.598 6.598 0 0 1-6.096 5.232L355.432 648c-0.12 0-0.24 0.008-0.368 0.008m-29.072-310.352l34.912 296.816 387.704-21.344 48.664-230.6-471.28-44.872z m428.032 281.792h0.088-0.088z" fill="#474341" /><path d="M344.088 735.112a6.604 6.604 0 0 1-6.584-6.168c-0.088-1.28-0.048-16.328-0.016-25.184 0.152-40.704 56.608-68.784 59.008-69.96a6.596 6.596 0 0 1 8.824 3.024 6.592 6.592 0 0 1-3.016 8.832c-0.512 0.248-51.488 25.632-51.608 58.152-0.032 8.776-0.04 14.416-0.032 18.048l382.752-3.048c3.528-0.384 6.624 2.904 6.656 6.544a6.608 6.608 0 0 1-6.552 6.656l-389.376 3.096h-0.056v0.008zM318.512 336.912c-0.088 0-0.184-0.008-0.272-0.008a6.598 6.598 0 0 1-6.328-6.856c1.072-26.608-4.224-46.184-15.744-58.184-11.04-11.496-24.328-11.816-24.456-11.816-3.648 0-6.608-2.96-6.608-6.6s2.96-6.6 6.608-6.6c0.768 0 18.904 0.176 33.976 15.88 14.112 14.688 20.648 37.52 19.416 67.856a6.61 6.61 0 0 1-6.592 6.328M444.144 342.4c-0.088 0-0.184-0.008-0.272-0.008a6.598 6.598 0 0 1-6.328-6.856c1.328-33.224-5.272-57.728-19.608-72.832-13.888-14.624-30.136-14.976-30.816-14.992l-110.656-9.04a6.594 6.594 0 0 1-6.04-7.12c0.304-3.64 3.56-6.408 7.112-6.04l110.16 9.016c0.176-0.04 21.632 0.136 39.552 18.8 17.08 17.776 24.984 45.6 23.488 82.72a6.614 6.614 0 0 1-6.592 6.352" fill="#474341" /><path d="M271.624 218.064h-42.52c-8.552 0-15.552 7-15.552 15.552v10.368c0 8.552 7 15.552 15.552 15.552h42.52v-41.472z" fill="#5BC1ED" /><path d="M271.632 266.152h-42.52c-12.216 0-22.16-9.944-22.16-22.16v-10.368c0-12.224 9.944-22.168 22.16-22.168h42.52c3.648 0 6.6 2.96 6.6 6.608v41.488c0 3.64-2.96 6.6-6.6 6.6m-42.52-41.488a8.97 8.97 0 0 0-8.952 8.96v10.368a8.956 8.956 0 0 0 8.952 8.944h35.912v-28.28h-35.912v0.008zM434.416 636.024a4.614 4.614 0 0 1-4.576-4.072L401.968 397.8a4.6 4.6 0 0 1 4.04-5.128c2.464-0.376 4.84 1.512 5.128 4.04l27.872 234.152a4.59 4.59 0 0 1-4.592 5.16M522.864 634.072a4.614 4.614 0 0 1-4.576-4.072l-27.32-228.88a4.6 4.6 0 0 1 4.04-5.128c2.496-0.408 4.832 1.504 5.128 4.04l27.32 228.872a4.594 4.594 0 0 1-4.04 5.128c-0.176 0.032-0.368 0.04-0.552 0.04M611.184 633.568a4.614 4.614 0 0 1-4.576-4.072l-27.872-234.144a4.6 4.6 0 0 1 4.04-5.128c2.456-0.408 4.84 1.496 5.128 4.04l27.872 234.144a4.59 4.59 0 0 1-4.04 5.128c-0.184 0.016-0.368 0.032-0.552 0.032M702.152 626.344a4.62 4.62 0 0 1-4.576-4.04l-27.392-214.44a4.63 4.63 0 0 1 4.008-5.168c2.408-0.336 4.84 1.464 5.168 4.008l27.384 214.44a4.626 4.626 0 0 1-4.592 5.2M709.904 445.032a4.616 4.616 0 0 1-0.2-9.232l34.352-1.48c2.888-0.36 4.712 1.864 4.816 4.408a4.616 4.616 0 0 1-4.416 4.816l-34.36 1.48c-0.064 0.008-0.128 0.008-0.192 0.008" fill="#474341" /><path d="M625.608 448.952a4.62 4.62 0 0 1-0.248-9.232l48.736-2.608c2.52-0.184 4.728 1.824 4.856 4.368a4.622 4.622 0 0 1-4.368 4.856l-48.736 2.608c-0.072 0.008-0.16 0.008-0.24 0.008M535.104 452.88a4.616 4.616 0 0 1-0.24-9.232l50.792-2.608c2.84-0.168 4.72 1.848 4.848 4.376a4.616 4.616 0 0 1-4.376 4.848l-50.792 2.608c-0.072 0.008-0.16 0.008-0.232 0.008M439.576 456.464a4.628 4.628 0 0 1-4.624-4.416 4.646 4.646 0 0 1 4.424-4.824l55.936-2.392c0.072-0.008 0.136-0.008 0.2-0.008 2.464 0 4.512 1.936 4.616 4.424a4.64 4.64 0 0 1-4.416 4.824l-55.944 2.392h-0.192M346.536 460.632a4.628 4.628 0 0 1-4.624-4.416 4.636 4.636 0 0 1 4.424-4.824l62.608-2.672c2.744-0.312 4.704 1.864 4.824 4.416a4.606 4.606 0 0 1-4.416 4.808l-62.616 2.696h-0.2v-0.008z" fill="#474341" /><path d="M456.248 763.856a32.37 32.37 0 0 1 5.28 17.712c0 18.768-16.144 33.992-36.056 33.992-19.904 0-36.048-15.216-36.048-33.992 0-11.736 6.304-22.08 15.896-28.192" fill="#AEABAA" /><path d="M425.472 820.184c-22.424 0-40.672-17.32-40.672-38.616 0-12.888 6.736-24.888 18.024-32.088a4.636 4.636 0 0 1 6.376 1.408 4.606 4.606 0 0 1-1.408 6.376c-8.608 5.496-13.752 14.576-13.752 24.296 0 16.192 14.104 29.368 31.432 29.368 17.336 0 31.44-13.176 31.44-29.368 0-5.376-1.568-10.624-4.536-15.192a4.614 4.614 0 0 1 1.36-6.392 4.62 4.62 0 0 1 6.392 1.352 37.06 37.06 0 0 1 6.024 20.232c-0.008 21.312-18.256 38.624-40.68 38.624" fill="#474341" /><path d="M444.016 782.6c-18.536 15.448-33.992 12.36-33.992 12.36l-6.184-67.984h55.624s3.088 40.176-15.448 55.624" fill="#5BC1ED" /><path d="M413.488 799.824c-2.6 0-4.168-0.288-4.376-0.336-2-0.4-3.512-2.072-3.696-4.112l-6.184-67.984a4.62 4.62 0 0 1 4.608-5.04h55.624c2.408 0 4.416 1.856 4.6 4.272 0.136 1.736 3.048 42.752-17.088 59.528-14.256 11.88-27.048 13.672-33.488 13.672m-4.592-68.224l5.376 59.008c4.992-0.12 15.072-1.792 26.792-11.552 13.152-10.96 14.112-37.152 13.952-47.456h-46.12z" fill="#474341" /><path d="M429.256 766.816a10.354 10.354 0 0 1-10.344-10.336c0-5.704 4.64-10.344 10.344-10.344s10.344 4.64 10.344 10.344a10.36 10.36 0 0 1-10.344 10.336m0-11.432a1.092 1.092 0 0 0-1.096 1.096c0 1.2 2.2 1.2 2.2 0a1.104 1.104 0 0 0-1.104-1.096" fill="#474341" /><path d="M705.28 763.856a32.37 32.37 0 0 1 5.28 17.712c0 18.768-16.144 33.992-36.056 33.992-19.904 0-36.048-15.216-36.048-33.992 0-11.736 6.304-22.08 15.896-28.192" fill="#AEABAA" /><path d="M674.504 820.184c-22.424 0-40.672-17.32-40.672-38.616 0-12.888 6.736-24.888 18.024-32.088a4.632 4.632 0 0 1 6.376 1.408 4.606 4.606 0 0 1-1.408 6.376c-8.608 5.496-13.752 14.576-13.752 24.296 0 16.192 14.104 29.368 31.432 29.368s31.432-13.176 31.432-29.368c0-5.376-1.568-10.624-4.536-15.192a4.614 4.614 0 0 1 1.36-6.392 4.62 4.62 0 0 1 6.392 1.352 37.12 37.12 0 0 1 6.016 20.232c0 21.312-18.248 38.624-40.664 38.624" fill="#474341" /><path d="M693.04 782.6c-18.536 15.448-33.992 12.36-33.992 12.36l-6.184-67.984h55.624c0.008 0 3.096 40.176-15.448 55.624" fill="#5BC1ED" /><path d="M662.512 799.824c-2.6 0-4.168-0.288-4.376-0.336-2-0.4-3.512-2.072-3.696-4.112l-6.176-67.984a4.598 4.598 0 0 1 1.192-3.536 4.608 4.608 0 0 1 3.416-1.504h55.624c2.408 0 4.416 1.856 4.6 4.272 0.136 1.736 3.048 42.752-17.104 59.528-14.24 11.88-27.04 13.672-33.48 13.672m-4.584-68.224l5.368 59.008c4.992-0.12 15.08-1.792 26.792-11.552 12.152-10.12 14.24-34.68 14-47.456h-46.16z" fill="#474341" /><path d="M678.288 766.816a10.354 10.354 0 0 1-10.344-10.336 10.356 10.356 0 0 1 10.344-10.344 10.354 10.354 0 0 1 10.336 10.344 10.358 10.358 0 0 1-10.336 10.336m0-11.432a1.092 1.092 0 0 0-1.096 1.096c0 1.192 2.192 1.216 2.192 0a1.102 1.102 0 0 0-1.096-1.096M719.384 545.144a4.616 4.616 0 0 1-4.616-4.416 4.62 4.62 0 0 1 4.416-4.824l34.36-1.472c2.784-0.056 4.704 1.872 4.816 4.416a4.62 4.62 0 0 1-4.416 4.824l-34.368 1.472h-0.192zM635.096 549.064a4.62 4.62 0 0 1-0.248-9.232l48.736-2.608c2.584-0.272 4.72 1.824 4.856 4.368a4.622 4.622 0 0 1-4.368 4.856l-48.736 2.608c-0.072 0.008-0.16 0.008-0.24 0.008M544.592 553.008a4.616 4.616 0 0 1-0.24-9.232l50.784-2.616c2.808-0.12 4.72 1.832 4.848 4.376a4.616 4.616 0 0 1-4.376 4.848l-50.784 2.616c-0.072 0.008-0.16 0.008-0.232 0.008M449.064 556.584a4.628 4.628 0 0 1-4.624-4.416 4.646 4.646 0 0 1 4.424-4.824l55.936-2.392c0.072-0.008 0.136-0.008 0.2-0.008 2.464 0 4.512 1.936 4.616 4.424a4.64 4.64 0 0 1-4.416 4.824l-55.944 2.392h-0.192M356.024 560.744a4.628 4.628 0 0 1-4.624-4.416 4.636 4.636 0 0 1 4.424-4.824l62.608-2.672c0.072-0.008 0.136-0.008 0.2-0.008 2.464 0 4.512 1.936 4.624 4.424a4.606 4.606 0 0 1-4.416 4.808l-62.616 2.696h-0.2v-0.008zM743.728 401.608c-0.128 0-0.256-0.008-0.376-0.016l-46.464-3.696a4.616 4.616 0 0 1-4.24-4.968c0.2-2.56 2.616-4.448 4.968-4.24l46.464 3.696a4.616 4.616 0 0 1 4.24 4.968 4.622 4.622 0 0 1-4.592 4.256M675.04 393.456c-0.128 0-0.248-0.008-0.376-0.016l-48.968-3.88a4.61 4.61 0 0 1-4.24-4.968 4.6 4.6 0 0 1 4.968-4.232l48.968 3.88a4.616 4.616 0 1 1-0.352 9.216M594.544 387.056c-0.128 0-0.256-0.008-0.376-0.016l-271.152-21.552a4.604 4.604 0 0 1-4.232-4.968c0.2-2.544 2.568-4.416 4.968-4.24l271.144 21.552a4.616 4.616 0 0 1 4.24 4.968 4.606 4.606 0 0 1-4.592 4.256M714.56 496.264a4.616 4.616 0 0 1-0.2-9.232l34.352-1.48c2.92-0.304 4.712 1.864 4.816 4.408a4.616 4.616 0 0 1-4.416 4.816l-34.36 1.48c-0.064 0.008-0.128 0.008-0.192 0.008M630.264 500.184a4.62 4.62 0 0 1-0.248-9.232l48.736-2.608c2.36-0.28 4.72 1.808 4.856 4.368a4.622 4.622 0 0 1-4.368 4.856l-48.736 2.608c-0.072 0.008-0.16 0.008-0.24 0.008M539.768 504.112a4.616 4.616 0 0 1-0.24-9.232l50.792-2.608c2.912-0.376 4.72 1.832 4.848 4.376a4.616 4.616 0 0 1-4.376 4.848L540 504.104c-0.08 0.008-0.16 0.008-0.232 0.008M444.232 507.696a4.628 4.628 0 0 1-4.624-4.416 4.646 4.646 0 0 1 4.424-4.824l55.936-2.392c2.76-0.336 4.704 1.864 4.824 4.416a4.64 4.64 0 0 1-4.416 4.824l-55.944 2.392h-0.2M351.192 511.864a4.628 4.628 0 0 1-4.624-4.416 4.636 4.636 0 0 1 4.424-4.824l62.608-2.672c2.784-0.248 4.704 1.864 4.824 4.416a4.606 4.606 0 0 1-4.416 4.808l-62.616 2.696h-0.2v-0.008z" fill="#474341" /></svg>