<?xml version="1.0" standalone="no"?><!DOCTYPE svg PUBLIC "-//W3C//DTD SVG 1.1//EN" "http://www.w3.org/Graphics/SVG/1.1/DTD/svg11.dtd"><svg t="1607411118045" class="icon" viewBox="0 0 1024 1024" version="1.1" xmlns="http://www.w3.org/2000/svg" p-id="4569" xmlns:xlink="http://www.w3.org/1999/xlink" width="200" height="200"><defs><style type="text/css"></style></defs><path d="M515.8 109.2L696 266.9l91.8 80.3h25.4c29.5 0 53.6 24.1 53.6 53.6v15.6l9.4 8.2h-9.4v481.7c0 29.5-24.1 53.6-53.6 53.6H215.7c-29.5 0-53.6-24.1-53.6-53.6V424.6h-6.7l6.7-5.8v-17.9c0-29.5 24.1-53.6 53.6-53.6h28.1l91.8-80.3 180.2-157.8z" fill="#FF3D40" p-id="4570"></path><path d="M813.3 962H215.7c-30.7 0-55.8-25-55.8-55.8V426.7h-10.2l10.2-8.9v-17c0-30.7 25-55.8 55.8-55.8H243l272.8-238.7 1.4 1.2L788.6 345h24.6c30.7 0 55.8 25 55.8 55.8v14.6l12.9 11.3H869v479.6c0 30.7-25 55.7-55.7 55.7zM161 422.5h3.1v483.8c0 28.4 23.1 51.5 51.5 51.5h597.6c28.4 0 51.5-23.1 51.5-51.5V422.5h5.8l-5.8-5.1v-16.5c0-28.4-23.1-51.5-51.5-51.5H787l-0.6-0.5L515.8 112 244.6 349.3h-28.9c-28.4 0-51.5 23.1-51.5 51.5v18.9l-3.2 2.8z" fill="#870002" p-id="4571"></path><path d="M332.1 272.7L512.3 115l180.3 157.7 180.2 157.7h55.6L748.2 272.7 512.3 66.3 276.5 272.7 96.2 430.4h55.7z" fill="#FFFA69" p-id="4572"></path><path d="M934.1 432.5H872l-0.6-0.5-359.1-314.2-359.6 314.7H90.6l421.7-369 421.8 369z m-60.5-4.2h49.2L512.3 69.1 101.9 428.3h49.2l179.6-157.2 1.4 1.6-1.4-1.6 181.6-158.9 361.3 316.1z" fill="#870002" p-id="4573"></path><path d="M516.1 579.8c-101.8 0-189.5 65.6-229 159.8-14.4 34.3-22.4 72.5-22.4 112.6 0 38 7.2 74.2 20.2 107.1h102.3c18.8-18 37.6-36 70-54.4s78.3-37.2 132.3-44.5c54-7.3 116-3.1 178 1.1 0.1-3.1 0.1-6.2 0.1-9.3 0-36.9-6.8-72.1-19.1-104.3-37.8-98.6-127.6-168.1-232.4-168.1z" fill="#CF0B11" p-id="4574"></path><path d="M387.1 960.8H283.9l-0.4-0.9c-13.4-34.1-20.3-70.3-20.3-107.6 0-39.5 7.6-77.5 22.5-113.2 19.8-47.2 51.5-87.3 91.7-115.9 41.2-29.3 89.2-44.8 138.7-44.8 51 0 100.2 16.4 142.2 47.3 41 30.2 72.6 72.3 91.5 121.8C762.5 780.8 769 816 769 852.3c0 3.1 0 6.2-0.1 9.3v1.5l-1.5-0.1c-60.9-4.1-123.9-8.4-177.7-1.1-58.3 7.9-103.9 28.5-131.8 44.3-32.2 18.3-51.3 36.5-69.7 54.1l-0.4 0.4-0.7 0.1zM285.8 958h100.8c18.4-17.6 37.6-35.8 69.8-54.2 28.1-16 74-36.7 132.8-44.7 53.7-7.3 116.2-3.1 176.8 0.9 0.1-2.6 0.1-5.2 0.1-7.8 0-35.9-6.4-70.8-19-103.7C708.2 646.9 617.5 581.2 516 581.2c-97.8 0-187.2 62.4-227.7 159-14.8 35.3-22.3 73-22.3 112.1 0.1 36.7 6.7 72.2 19.8 105.7z" fill="#870002" p-id="4575"></path><path d="M589.4 860.5c-54 7.3-99.9 26.1-132.3 44.5-32.4 18.4-51.2 36.4-70 54.4h360.3c11.9-30.2 19-63.2 20-97.8-62-4.2-124-8.4-178-1.1z" fill="#FF3D40" p-id="4576"></path><path d="M748.4 960.8H383.6l2.6-2.4c18.6-17.7 37.7-36.1 70.3-54.6 28.1-16 74-36.7 132.8-44.7 54.1-7.3 117.3-3.1 178.3 1l1.4 0.1v1.4c-1.1 34.1-7.8 67.1-20.1 98.3l-0.5 0.9zM390.7 958h355.8c11.8-30.2 18.4-62.1 19.5-95.1-60.5-4.1-122.9-8.2-176.4-1-58.3 7.9-103.9 28.5-131.8 44.3-30.7 17.5-49.5 34.9-67.1 51.8z" fill="#870002" p-id="4577"></path><path d="M615.1 592.1v-105h-98.8v104.4c1 28.5 22.7 51.2 49.4 51.2 26.5 0 48.1-22.4 49.4-50.6z" fill="#FF3D40" p-id="4578"></path><path d="M565.8 643.8c-27.3 0-49.4-23-50.5-52.3V486h100.9v106.2c-1.3 28.9-23.5 51.6-50.4 51.6z m-48.4-155.7v103.4c1 28.1 22.2 50.2 48.3 50.2 25.8 0 47-21.8 48.3-49.5v-104h-96.6z" fill="#870002" p-id="4579"></path><path d="M714.3 592.1v-105h-98.8v104.4c1 28.5 22.7 51.2 49.4 51.2 26.5 0 48.1-22.4 49.4-50.6z" fill="#FFFA69" p-id="4580"></path><path d="M665 643.8c-27.3 0-49.4-23-50.5-52.3V486h100.9v106.2c-1.3 28.9-23.5 51.6-50.4 51.6z m-48.4-155.7v103.4c1 28.1 22.2 50.2 48.3 50.2 25.8 0 47-21.8 48.3-49.5v-104h-96.6z" fill="#870002" p-id="4581"></path><path d="M813.5 592.1v-105h-98.8v104.4c1 28.5 22.7 51.2 49.4 51.2 26.5 0 48.1-22.4 49.4-50.6z" fill="#FF3D40" p-id="4582"></path><path d="M764.2 643.8c-27.3 0-49.4-23-50.5-52.3V486h100.9v106.2c-1.3 28.9-23.5 51.6-50.4 51.6z m-48.4-155.7v103.4c1 28.1 22.2 50.2 48.3 50.2 25.8 0 47-21.8 48.3-49.5v-104h-96.6z" fill="#870002" p-id="4583"></path><path d="M515.9 592.1v-105h-98.8v104.4c1 28.5 22.7 51.2 49.4 51.2 26.5 0 48.1-22.4 49.4-50.6z" fill="#FFFA69" p-id="4584"></path><path d="M466.6 643.8c-27.3 0-49.4-23-50.5-52.3V486H517v106.2c-1.3 28.9-23.5 51.6-50.4 51.6z m-48.4-155.7v103.4c1 28.1 22.2 50.2 48.3 50.2 25.8 0 47-21.8 48.3-49.5v-104h-96.6z" fill="#870002" p-id="4585"></path><path d="M416.7 592.1v-105H318v104.4c1 28.5 22.7 51.2 49.4 51.2 26.4 0 48-22.4 49.3-50.6z" fill="#FF3D40" p-id="4586"></path><path d="M367.4 643.8c-27.3 0-49.4-23-50.5-52.3V486h100.9v106.2c-1.3 28.9-23.5 51.6-50.4 51.6zM319 488.1v103.4c1 28.1 22.2 50.2 48.3 50.2 25.8 0 47-21.8 48.3-49.5v-104H319z" fill="#870002" p-id="4587"></path><path d="M317.5 592.1v-105h-98.8v104.4c1 28.5 22.7 51.2 49.4 51.2 26.5 0 48.1-22.4 49.4-50.6z" fill="#FFFA69" p-id="4588"></path><path d="M268.2 643.8c-27.3 0-49.4-23-50.5-52.3V486h100.9v106.2c-1.4 28.9-23.5 51.6-50.4 51.6z m-48.4-155.7v103.4c1 28.1 22.2 50.2 48.3 50.2 25.8 0 47-21.8 48.3-49.5v-104h-96.6z" fill="#870002" p-id="4589"></path><path d="M221.6 469.1h590.6c6.6 0 12.1 5.4 12.1 12.1 0 6.6-5.4 12.1-12.1 12.1H221.6c-6.6 0-12.1-5.4-12.1-12.1 0-6.7 5.4-12.1 12.1-12.1z" fill="#FFFA69" p-id="4590"></path><path d="M812.2 494.6H221.6c-7.4 0-13.5-6-13.5-13.5s6-13.5 13.5-13.5h590.6c7.4 0 13.5 6 13.5 13.5s-6.1 13.5-13.5 13.5z m-590.6-24.1c-5.9 0-10.6 4.8-10.6 10.6s4.8 10.6 10.6 10.6h590.6c5.9 0 10.6-4.8 10.6-10.6s-4.8-10.6-10.6-10.6H221.6z" fill="#870002" p-id="4591"></path><path d="M402.4 333.7c4.8 5.9 11.7 9.6 18.7 13.2-7.2 3.9-14.3 7.9-19 14-5 6.3-7.5 14.9-7.1 23.3 0.4 8.4 3.6 16.6 9 22.6s13 9.7 21.6 10.8c8.6 1.1 18.1-0.6 27.8-5.1 9.8-4.5 19.9-11.8 26-17.3 6.1-5.4 8.3-8.9 19.3-10.6 10.9-1.6 30.6-1.5 40.9 0.5 10.3 2 11.3 5.8 17 11.8 5.7 6 16.2 14.2 26.7 18.1 10.4 3.9 20.7 3.7 29.2 0.6s15.1-8.9 19.4-16.6c4.3-7.8 6.3-17.5 2.6-26.6-3.6-9-12.5-17.5-21.6-26 9.2-8.9 18.2-17.7 21.7-26.9 3.7-9.4 1.6-19.1-2.8-26.8-4.4-7.7-11.1-13.5-19.6-16.4-8.5-2.9-18.8-3.1-29.2 1-10.4 4.1-20.8 12.4-26.4 18.4-5.7 6.1-6.6 9.9-16.9 12-10.3 2.1-29.9 2.6-40.9 1-10.9-1.5-13.2-5-19.4-10.3s-16.4-12.6-26.2-16.9c-9.8-4.4-19.4-5.9-27.9-4.7-8.5 1.2-16.1 5-21.5 11.1-5.3 6.1-8.5 14.3-8.7 22.7-0.3 8.4 2.3 17 7.3 23.1z" fill="#FFFA69" p-id="4592"></path><path d="M598.9 419.5c-5.4 0-10.9-1-16.2-3-10.3-3.9-21.1-12.1-27.2-18.4-1.2-1.3-2.3-2.5-3.2-3.5-3.4-4-5.4-6.3-13.1-7.8-9.9-1.9-29.5-2.2-40.4-0.5-8.9 1.3-11.6 3.8-16 7.9-0.8 0.7-1.6 1.5-2.5 2.3-6.1 5.4-16.3 12.9-26.4 17.5-9.8 4.5-19.7 6.3-28.6 5.2-8.9-1.1-16.9-5.1-22.5-11.3-5.6-6.1-9-14.7-9.4-23.5-0.4-8.9 2.3-17.8 7.4-24.2 4.3-5.4 10.3-9.3 17.1-13.1-5.8-3-12.3-6.8-16.8-12.4-5.1-6.3-7.9-15.1-7.6-24 0.3-8.8 3.6-17.4 9.1-23.6 5.5-6.2 13.4-10.3 22.3-11.5 8.9-1.2 18.8 0.5 28.7 4.8 10.1 4.5 20.4 11.8 26.6 17.2 0.9 0.8 1.8 1.6 2.6 2.3 4.5 4.1 7.2 6.5 16.1 7.7 10.9 1.5 30.5 1 40.4-1 7.6-1.6 9.7-4 13-8 0.9-1.1 1.9-2.3 3.1-3.6 6-6.4 16.7-14.7 26.9-18.8 10-3.9 20.7-4.3 30.2-1 8.7 3 15.7 8.9 20.4 17 5.3 9.3 6.3 19.2 2.9 28-3.6 9.3-12.7 18.3-21 26.3 8.2 7.7 17.3 16.4 20.8 25.5 4.6 11.6 0.3 22.4-2.7 27.8-4.5 8.2-11.5 14.2-20.1 17.3-4.4 1.6-9.1 2.4-13.9 2.4zM517 382.2c8.5 0 17.1 0.6 22.8 1.7 8.6 1.7 11.2 4.6 14.7 8.8 0.9 1.1 1.9 2.2 3.1 3.4 5.9 6.1 16.3 14 26.1 17.8 9.4 3.6 19.4 3.8 28.2 0.6 8-2.9 14.4-8.4 18.6-16 2.7-5 6.7-14.9 2.6-25.4-3.5-8.9-12.9-17.7-21.2-25.5l-1.1-1 1.1-1c8.4-8.1 17.8-17.3 21.4-26.3 4.2-10.7 0.1-20.6-2.7-25.6-4.3-7.5-10.8-13-18.8-15.8-8.8-3.1-18.8-2.7-28.2 1-9.8 3.9-20.1 11.9-25.9 18.1-1.2 1.2-2.1 2.4-3 3.5-3.5 4.2-6 7.2-14.6 8.9-10.3 2.1-30 2.6-41.3 1.1-9.7-1.4-13-4.3-17.6-8.4-0.8-0.7-1.6-1.4-2.5-2.2-6.1-5.2-16-12.3-25.9-16.7-9.4-4.2-18.8-5.8-27.1-4.6-8.2 1.1-15.5 4.9-20.6 10.6-5.1 5.7-8.1 13.7-8.4 21.8-0.3 8.3 2.3 16.3 7 22.1 4.4 5.5 10.6 8.9 18.2 12.8l2.4 1.2-2.3 1.3c-7.6 4.1-14.2 8-18.6 13.6-4.7 5.9-7.2 14.1-6.8 22.4 0.4 8.1 3.5 16 8.6 21.7 5.1 5.7 12.5 9.3 20.7 10.3 8.4 1 17.8-0.7 27.1-5 9.8-4.5 19.7-11.8 25.7-17 0.9-0.8 1.7-1.5 2.5-2.3 4.5-4.2 7.8-7.2 17.5-8.6 4.8-1 11.5-1.3 18.3-1.3z" fill="#870002" p-id="4593"></path><path d="M536.9 371.7c-10-1.9-29.1-2.1-39.7-0.5-10.6 1.6-12.8 5-18.7 10.3-6 5.3-15.8 12.4-25.3 16.8s-18.8 6-27.1 4.9c-8.3-1-15.7-4.7-21-10.5-5-5.5-8-12.9-8.7-20.5-1.1 3.9-1.6 8-1.4 12 0.4 8.4 3.6 16.6 9 22.6s13 9.7 21.6 10.8c8.6 1.1 18.1-0.6 27.8-5.1 9.8-4.5 19.9-11.8 26-17.3 6.1-5.4 8.3-8.9 19.3-10.6 10.9-1.6 30.6-1.5 40.9 0.5 10.3 2 11.3 5.8 17 11.8 5.7 6 16.2 14.2 26.7 18.1 10.4 3.9 20.7 3.7 29.2 0.6s15.1-8.9 19.4-16.6c4.3-7.8 6.3-17.5 2.6-26.6-0.9-2.2-2.1-4.4-3.6-6.6 0.8 6.8-1.1 13.6-4.2 19.3-4.2 7.5-10.6 13.2-18.9 16.2-8.2 3-18.3 3.2-28.4-0.6-10.1-3.8-20.3-11.8-25.9-17.6-5.6-5.8-6.6-9.4-16.6-11.4z" fill="#FF9B29" p-id="4594"></path><path d="M623.7 296.3c4.3 7.5 6.3 16.9 2.7 26-3.5 8.9-12.2 17.5-21.2 26.1 8.8 8.3 17.5 16.5 21 25.3 1.1 2.8 1.7 5.6 1.8 8.5 2.2-5 3.4-10.7 2.7-16.4-4.4-6.6-11.2-13-18-19.4 9.2-8.9 18.2-17.7 21.7-26.9 3.7-9.4 1.6-19.1-2.8-26.8-4.4-7.7-11.1-13.5-19.6-16.4-8.5-2.9-18.8-3.1-29.2 1-3.9 1.5-7.8 3.7-11.5 6 1.6-0.8 3.2-1.5 4.7-2.2 10.1-4 20.1-3.8 28.4-1 8.5 3.2 15 8.7 19.3 16.2z" fill="#FF9B29" p-id="4595"></path><path d="M628 382.7v-0.5c-0.1-2.9-0.7-5.8-1.8-8.4-3.5-8.9-12.8-17.6-21-25.2l-0.1-0.1 0.1-0.1c8.2-8 17.6-17 21.1-26.1 4.3-10.9 0.1-20.9-2.7-25.9-4.3-7.6-10.9-13.1-19-15.9-8.9-3.1-18.9-2.7-28.3 1-1.5 0.6-3.1 1.3-4.7 2.1l-1.8 0.9 1.7-1.1c4-2.6 7.8-4.6 11.5-6.1 9.7-3.8 20.1-4.2 29.3-1 8.4 2.9 15.2 8.6 19.6 16.5 2.9 5.2 7.2 15.6 2.8 26.9-3.7 9.4-13.2 18.6-21.7 26.8 6.3 5.9 13.4 12.6 18 19.3 0.6 5.3-0.3 11-2.8 16.4l-0.2 0.5z m-22.6-34.2c8.2 7.7 17.4 16.3 20.9 25.2 1 2.6 1.6 5.3 1.8 8 2.3-5.3 3.2-10.8 2.6-15.9-4.6-6.7-11.7-13.4-18-19.3l-0.1-0.1 0.1-0.1c8.5-8.2 18.1-17.5 21.7-26.8 4.4-11.2 0.1-21.5-2.8-26.7-4.5-7.8-11.2-13.5-19.5-16.4-9.1-3.2-19.5-2.8-29.1 1-3.1 1.2-6.4 2.9-9.8 5 1-0.5 2-0.9 3-1.3 9.4-3.7 19.5-4 28.5-1 8.1 2.8 14.8 8.4 19.1 16 2.9 5 7 15.1 2.7 26.1-3.5 9.3-12.8 18.3-21.1 26.3z" fill="#FF9B29" p-id="4596"></path><path d="M598.9 419.5c-5.4 0-10.9-1-16.2-3-10.3-3.9-21.1-12.1-27.2-18.4-1.2-1.3-2.3-2.5-3.2-3.5-3.4-4-5.4-6.3-13.1-7.8-9.9-1.9-29.5-2.2-40.4-0.5-8.9 1.3-11.6 3.8-16 7.9-0.8 0.7-1.6 1.5-2.5 2.3-6.1 5.4-16.3 12.9-26.4 17.5-9.8 4.5-19.7 6.3-28.6 5.2-8.9-1.1-16.9-5.1-22.5-11.3-5.6-6.1-9-14.7-9.4-23.5-0.4-8.9 2.3-17.8 7.4-24.2 4.3-5.4 10.3-9.3 17.1-13.1-5.8-3-12.3-6.8-16.8-12.4-5.1-6.3-7.9-15.1-7.6-24 0.3-8.8 3.6-17.4 9.1-23.6 5.5-6.2 13.4-10.3 22.3-11.5 8.9-1.2 18.8 0.5 28.7 4.8 10.1 4.5 20.4 11.8 26.6 17.2 0.9 0.8 1.8 1.6 2.6 2.3 4.5 4.1 7.2 6.5 16.1 7.7 10.9 1.5 30.5 1 40.4-1 7.6-1.6 9.7-4 13-8 0.9-1.1 1.9-2.3 3.1-3.6 6-6.4 16.7-14.7 26.9-18.8 10-3.9 20.7-4.3 30.2-1 8.7 3 15.7 8.9 20.4 17 5.3 9.3 6.3 19.2 2.9 28-3.6 9.3-12.7 18.3-21 26.3 8.2 7.7 17.3 16.4 20.8 25.5 4.6 11.6 0.3 22.4-2.7 27.8-4.5 8.2-11.5 14.2-20.1 17.3-4.4 1.6-9.1 2.4-13.9 2.4zM517 382.2c8.5 0 17.1 0.6 22.8 1.7 8.6 1.7 11.2 4.6 14.7 8.8 0.9 1.1 1.9 2.2 3.1 3.4 5.9 6.1 16.3 14 26.1 17.8 9.4 3.6 19.4 3.8 28.2 0.6 8-2.9 14.4-8.4 18.6-16 2.7-5 6.7-14.9 2.6-25.4-3.5-8.9-12.9-17.7-21.2-25.5l-1.1-1 1.1-1c8.4-8.1 17.8-17.3 21.4-26.3 4.2-10.7 0.1-20.6-2.7-25.6-4.3-7.5-10.8-13-18.8-15.8-8.8-3.1-18.8-2.7-28.2 1-9.8 3.9-20.1 11.9-25.9 18.1-1.2 1.2-2.1 2.4-3 3.5-3.5 4.2-6 7.2-14.6 8.9-10.3 2.1-30 2.6-41.3 1.1-9.7-1.4-13-4.3-17.6-8.4-0.8-0.7-1.6-1.4-2.5-2.2-6.1-5.2-16-12.3-25.9-16.7-9.4-4.2-18.8-5.8-27.1-4.6-8.2 1.1-15.5 4.9-20.6 10.6-5.1 5.7-8.1 13.7-8.4 21.8-0.3 8.3 2.3 16.3 7 22.1 4.4 5.5 10.6 8.9 18.2 12.8l2.4 1.2-2.3 1.3c-7.6 4.1-14.2 8-18.6 13.6-4.7 5.9-7.2 14.1-6.8 22.4 0.4 8.1 3.5 16 8.6 21.7 5.1 5.7 12.5 9.3 20.7 10.3 8.4 1 17.8-0.7 27.1-5 9.8-4.5 19.7-11.8 25.7-17 0.9-0.8 1.7-1.5 2.5-2.3 4.5-4.2 7.8-7.2 17.5-8.6 4.8-1 11.5-1.3 18.3-1.3z" fill="#870002" p-id="4597"></path><path d="M598.9 419.5c-5.4 0-10.9-1-16.2-3-10.3-3.9-21.1-12.1-27.2-18.4-1.2-1.3-2.3-2.5-3.2-3.5-3.4-4-5.4-6.3-13.1-7.8-9.9-1.9-29.5-2.2-40.4-0.5-8.9 1.3-11.6 3.8-16 7.9-0.8 0.7-1.6 1.5-2.5 2.3-6.1 5.4-16.3 12.9-26.4 17.5-9.8 4.5-19.7 6.3-28.6 5.2-8.9-1.1-16.9-5.1-22.5-11.3-5.6-6.1-9-14.7-9.4-23.5-0.4-8.9 2.3-17.8 7.4-24.2 4.3-5.4 10.3-9.3 17.1-13.1-5.8-3-12.3-6.8-16.8-12.4-5.1-6.3-7.9-15.1-7.6-24 0.3-8.8 3.6-17.4 9.1-23.6 5.5-6.2 13.4-10.3 22.3-11.5 8.9-1.2 18.8 0.5 28.7 4.8 10.1 4.5 20.4 11.8 26.6 17.2 0.9 0.8 1.8 1.6 2.6 2.3 4.5 4.1 7.2 6.5 16.1 7.7 10.9 1.5 30.5 1 40.4-1 7.6-1.6 9.7-4 13-8 0.9-1.1 1.9-2.3 3.1-3.6 6-6.4 16.7-14.7 26.9-18.8 10-3.9 20.7-4.3 30.2-1 8.7 3 15.7 8.9 20.4 17 5.3 9.3 6.3 19.2 2.9 28-3.6 9.3-12.7 18.3-21 26.3 8.2 7.7 17.3 16.4 20.8 25.5 4.6 11.6 0.3 22.4-2.7 27.8-4.5 8.2-11.5 14.2-20.1 17.3-4.4 1.6-9.1 2.4-13.9 2.4zM517 382.2c8.5 0 17.1 0.6 22.8 1.7 8.6 1.7 11.2 4.6 14.7 8.8 0.9 1.1 1.9 2.2 3.1 3.4 5.9 6.1 16.3 14 26.1 17.8 9.4 3.6 19.4 3.8 28.2 0.6 8-2.9 14.4-8.4 18.6-16 2.7-5 6.7-14.9 2.6-25.4-3.5-8.9-12.9-17.7-21.2-25.5l-1.1-1 1.1-1c8.4-8.1 17.8-17.3 21.4-26.3 4.2-10.7 0.1-20.6-2.7-25.6-4.3-7.5-10.8-13-18.8-15.8-8.8-3.1-18.8-2.7-28.2 1-9.8 3.9-20.1 11.9-25.9 18.1-1.2 1.2-2.1 2.4-3 3.5-3.5 4.2-6 7.2-14.6 8.9-10.3 2.1-30 2.6-41.3 1.1-9.7-1.4-13-4.3-17.6-8.4-0.8-0.7-1.6-1.4-2.5-2.2-6.1-5.2-16-12.3-25.9-16.7-9.4-4.2-18.8-5.8-27.1-4.6-8.2 1.1-15.5 4.9-20.6 10.6-5.1 5.7-8.1 13.7-8.4 21.8-0.3 8.3 2.3 16.3 7 22.1 4.4 5.5 10.6 8.9 18.2 12.8l2.4 1.2-2.3 1.3c-7.6 4.1-14.2 8-18.6 13.6-4.7 5.9-7.2 14.1-6.8 22.4 0.4 8.1 3.5 16 8.6 21.7 5.1 5.7 12.5 9.3 20.7 10.3 8.4 1 17.8-0.7 27.1-5 9.8-4.5 19.7-11.8 25.7-17 0.9-0.8 1.7-1.5 2.5-2.3 4.5-4.2 7.8-7.2 17.5-8.6 4.8-1 11.5-1.3 18.3-1.3z" fill="#870002" p-id="4598"></path></svg>